<svg width="174" height="252" viewBox="0 0 174 252" fill="none" xmlns="http://www.w3.org/2000/svg">
<path d="M65.5201 92.57L157.76 38.31C158.104 38.1086 158.38 37.8089 158.553 37.4495C158.725 37.0901 158.786 36.6872 158.728 36.2928C158.67 35.8983 158.496 35.5302 158.227 35.2357C157.958 34.9412 157.608 34.7337 157.22 34.64L20.11 1.19999C17.755 0.625787 15.3002 0.594211 12.9312 1.10764C10.5621 1.62107 8.34068 2.66605 6.43463 4.16373C4.52858 5.66141 2.98773 7.57259 1.92847 9.75296C0.86921 11.9333 0.319257 14.3259 0.320069 16.75V139.44C0.319319 142.127 1.2207 144.737 2.87976 146.851C4.53883 148.966 6.85951 150.462 9.47003 151.1L49.7501 160.92V120.15C49.7498 114.578 51.2047 109.102 53.9706 104.265C56.7366 99.4274 60.7177 95.3962 65.5201 92.57Z" fill="#0033CC"/>
<path d="M65.05 180.59V239.24C65.0493 241.354 65.6074 243.432 66.6677 245.261C67.7281 247.091 69.2531 248.608 71.0883 249.658C72.9235 250.709 75.0038 251.256 77.1184 251.244C79.233 251.232 81.3069 250.661 83.1301 249.59L160.86 203.86L65.05 180.59Z" fill="#FFA017"/>
<path d="M173.32 190.75V54.44C173.318 53.7391 173.131 53.0511 172.779 52.4449C172.427 51.8388 171.922 51.3359 171.314 50.9865C170.706 50.637 170.018 50.4535 169.317 50.4541C168.616 50.4547 167.927 50.6395 167.32 50.99L76.91 104.17C73.3071 106.29 70.3202 109.314 68.2453 112.943C66.1704 116.572 65.0793 120.68 65.0801 124.86V164.45L173.32 190.75Z" fill="#0066FF"/>
</svg>
