<svg width="327" height="94" viewBox="0 0 327 94" fill="none" xmlns="http://www.w3.org/2000/svg">
<rect x="0.5" y="0.5" width="325.977" height="92.5287" rx="15.5" fill="white"/>
<path d="M60.49 33.5311V62.2448H57.5701V39.3154L47.3087 62.2448H45.1813L34.9199 39.3987V62.2448H32V33.5311H35.0868L46.2241 58.4163L57.3615 33.5311H60.49Z" fill="#141459"/>
<path d="M64.9448 50.8425C64.9448 48.5121 65.4036 46.4731 66.3213 44.7253C67.2668 42.9497 68.5599 41.5903 70.2006 40.6471C71.8692 39.6761 73.7463 39.1906 75.8319 39.1906C78.001 39.1906 79.8642 39.69 81.4214 40.6887C83.0065 41.6874 84.1467 42.9636 84.8419 44.5172V39.5235H87.7618V62.2448H84.8419V57.2095C84.1189 58.7631 82.9648 60.0531 81.3797 61.0796C79.8225 62.0784 77.9593 62.5777 75.7902 62.5777C73.7323 62.5777 71.8692 62.0922 70.2006 61.1212C68.5599 60.1502 67.2668 58.777 66.3213 57.0014C65.4036 55.2259 64.9448 53.1729 64.9448 50.8425ZM84.8419 50.8842C84.8419 49.0531 84.4665 47.4441 83.7157 46.0569C82.9648 44.6698 81.9359 43.6017 80.6289 42.8526C79.3497 42.1036 77.9315 41.729 76.3742 41.729C74.7613 41.729 73.3152 42.0897 72.036 42.811C70.7568 43.5323 69.7418 44.5866 68.991 45.9737C68.2679 47.3331 67.9064 48.956 67.9064 50.8425C67.9064 52.7013 68.2679 54.3381 68.991 55.753C69.7418 57.1401 70.7568 58.2082 72.036 58.9573C73.3152 59.6786 74.7613 60.0393 76.3742 60.0393C77.9315 60.0393 79.3497 59.6647 80.6289 58.9157C81.9359 58.1666 82.9648 57.0985 83.7157 55.7114C84.4665 54.3243 84.8419 52.7152 84.8419 50.8842Z" fill="#141459"/>
<path d="M92.2587 50.8425C92.2587 48.5121 92.7314 46.4731 93.6769 44.7253C94.6224 42.9497 95.9155 41.5903 97.5562 40.6471C99.2248 39.6761 101.102 39.1906 103.188 39.1906C105.19 39.1906 106.997 39.6761 108.61 40.6471C110.223 41.6181 111.405 42.8804 112.156 44.434V31.4504H115.076V62.2448H112.156V57.1679C111.461 58.7492 110.32 60.0531 108.735 61.0796C107.15 62.0784 105.287 62.5777 103.146 62.5777C101.06 62.5777 99.183 62.0922 97.5145 61.1212C95.8738 60.1502 94.5807 58.777 93.6352 57.0014C92.7175 55.2259 92.2587 53.1729 92.2587 50.8425ZM112.156 50.8842C112.156 49.0531 111.78 47.4441 111.03 46.0569C110.279 44.6698 109.25 43.6017 107.943 42.8526C106.664 42.1036 105.245 41.729 103.688 41.729C102.075 41.729 100.629 42.0897 99.3499 42.811C98.0707 43.5323 97.0557 44.5866 96.3048 45.9737C95.5818 47.3331 95.2203 48.956 95.2203 50.8425C95.2203 52.7013 95.5818 54.3381 96.3048 55.753C97.0557 57.1401 98.0707 58.2082 99.3499 58.9573C100.629 59.6786 102.075 60.0393 103.688 60.0393C105.245 60.0393 106.664 59.6647 107.943 58.9157C109.25 58.1666 110.279 57.0985 111.03 55.7114C111.78 54.3243 112.156 52.7152 112.156 50.8842Z" fill="#141459"/>
<path d="M141.514 49.719C141.514 50.7177 141.486 51.4806 141.43 52.0077H122.534C122.618 53.7278 123.035 55.1981 123.786 56.4188C124.536 57.6395 125.524 58.5689 126.747 59.207C127.971 59.8173 129.306 60.1225 130.752 60.1225C132.643 60.1225 134.228 59.6647 135.507 58.7492C136.814 57.8337 137.676 56.5992 138.093 55.0456H141.18C140.624 57.265 139.428 59.0821 137.593 60.497C135.785 61.8842 133.505 62.5777 130.752 62.5777C128.61 62.5777 126.692 62.1061 124.995 61.1628C123.299 60.1918 121.964 58.8325 120.991 57.0847C120.045 55.3091 119.573 53.2423 119.573 50.8842C119.573 48.526 120.045 46.4592 120.991 44.6836C121.936 42.9081 123.257 41.5487 124.954 40.6055C126.65 39.6622 128.583 39.1906 130.752 39.1906C132.921 39.1906 134.812 39.6622 136.425 40.6055C138.065 41.5487 139.317 42.8249 140.179 44.434C141.069 46.0153 141.514 47.777 141.514 49.719ZM138.552 49.6357C138.58 47.9434 138.232 46.5008 137.509 45.3079C136.814 44.1149 135.855 43.2133 134.631 42.6029C133.407 41.9926 132.073 41.6874 130.627 41.6874C128.457 41.6874 126.608 42.381 125.079 43.7681C123.549 45.1553 122.701 47.1111 122.534 49.6357H138.552Z" fill="#141459"/>
<path d="M186.667 39.5235L179.534 62.2448H176.614L170.316 43.1855L164.017 62.2448H161.056L153.923 39.5235H156.884L162.557 59.2902L168.939 39.5235H171.859L178.158 59.3318L183.789 39.5235H186.667Z" fill="#141459"/>
<path d="M191.274 35.2372C190.69 35.2372 190.189 35.0292 189.772 34.613C189.355 34.1969 189.146 33.6837 189.146 33.0733C189.146 32.463 189.355 31.9636 189.772 31.5752C190.189 31.1591 190.69 30.951 191.274 30.951C191.858 30.951 192.358 31.1591 192.775 31.5752C193.192 31.9636 193.401 32.463 193.401 33.0733C193.401 33.6837 193.192 34.1969 192.775 34.613C192.358 35.0292 191.858 35.2372 191.274 35.2372ZM192.734 39.5235V62.2448H189.814V39.5235H192.734Z" fill="#141459"/>
<path d="M202.307 41.9787V56.0859C202.307 57.4731 202.572 58.4302 203.1 58.9573C203.628 59.4844 204.56 59.748 205.895 59.748H208.564V62.2448H205.436C203.378 62.2448 201.849 61.7732 200.847 60.8299C199.846 59.8589 199.346 58.2776 199.346 56.0859V41.9787H196.176V39.5235H199.346V33.8224H202.307V39.5235H208.564V41.9787H202.307Z" fill="#141459"/>
<path d="M223.391 39.1074C225.115 39.1074 226.659 39.468 228.021 40.1893C229.412 40.9106 230.496 42.0203 231.275 43.5185C232.081 44.9888 232.484 46.7921 232.484 48.9283V62.2448H229.606V49.2612C229.606 46.7921 228.981 44.9056 227.729 43.6017C226.506 42.2978 224.823 41.6458 222.682 41.6458C220.485 41.6458 218.733 42.3394 217.426 43.7265C216.119 45.1137 215.466 47.1528 215.466 49.8438V62.2448H212.546V31.4504H215.466V43.3936C216.189 42.0342 217.245 40.98 218.636 40.2309C220.054 39.4819 221.639 39.1074 223.391 39.1074Z" fill="#141459"/>
<path d="M268.499 38.5545L291.155 25.227C291.24 25.1775 291.308 25.1039 291.35 25.0156C291.393 24.9273 291.408 24.8284 291.393 24.7315C291.379 24.6346 291.336 24.5442 291.27 24.4718C291.204 24.3995 291.118 24.3485 291.023 24.3255L257.345 16.1118C256.767 15.9708 256.164 15.9631 255.582 16.0892C255 16.2153 254.455 16.4719 253.986 16.8398C253.518 17.2077 253.14 17.6771 252.88 18.2127C252.619 18.7482 252.484 19.3359 252.484 19.9313V50.0669C252.484 50.727 252.706 51.3681 253.113 51.8873C253.521 52.4066 254.091 52.7741 254.732 52.9309L264.626 55.3429V45.3288C264.626 43.9601 264.983 42.6152 265.662 41.427C266.342 40.2389 267.32 39.2487 268.499 38.5545V38.5545Z" fill="#0033CC"/>
<path d="M268.384 60.1743V74.5802C268.383 75.0996 268.52 75.6098 268.781 76.0592C269.041 76.5086 269.416 76.8812 269.867 77.1392C270.318 77.3973 270.828 77.5316 271.348 77.5286C271.867 77.5257 272.377 77.3855 272.825 77.1224L291.917 65.89L268.384 60.1743Z" fill="#FFA017"/>
<path d="M294.977 62.6699V29.1889C294.977 29.0167 294.931 28.8477 294.844 28.6988C294.758 28.55 294.634 28.4264 294.485 28.3406C294.335 28.2548 294.166 28.2097 293.994 28.2098C293.822 28.21 293.653 28.2554 293.504 28.3415L271.297 41.4038C270.412 41.9244 269.678 42.6672 269.168 43.5586C268.659 44.4499 268.391 45.4589 268.391 46.4857V56.21L294.977 62.6699Z" fill="#0066FF"/>
<rect x="0.5" y="0.5" width="325.977" height="92.5287" rx="15.5" stroke="#CFD5DD"/>
</svg>
