<svg width="480" height="94" viewBox="0 0 480 94" fill="none" xmlns="http://www.w3.org/2000/svg">
<rect x="0.5" y="0.5" width="478.476" height="92.5287" rx="15.5" fill="white"/>
<path d="M48.0147 38.5545L70.671 25.227C70.7555 25.1775 70.8234 25.1039 70.8657 25.0156C70.9081 24.9273 70.9232 24.8284 70.9089 24.7315C70.8947 24.6346 70.8518 24.5442 70.7858 24.4718C70.7197 24.3995 70.6336 24.3485 70.5384 24.3255L36.8609 16.1118C36.2824 15.9708 35.6795 15.9631 35.0976 16.0892C34.5157 16.2153 33.97 16.4719 33.5019 16.8398C33.0337 17.2077 32.6552 17.6771 32.3951 18.2127C32.1349 18.7482 31.9998 19.3359 32 19.9313V50.0669C31.9998 50.727 32.2212 51.3681 32.6287 51.8873C33.0362 52.4066 33.6062 52.7741 34.2474 52.9309L44.1412 55.3429V45.3288C44.1411 43.9601 44.4985 42.6152 45.1779 41.427C45.8573 40.2389 46.8351 39.2487 48.0147 38.5545V38.5545Z" fill="#0033CC"/>
<path d="M47.8991 60.1743V74.5801C47.8989 75.0996 48.036 75.6098 48.2965 76.0592C48.5569 76.5086 48.9316 76.8812 49.3823 77.1392C49.8331 77.3973 50.344 77.5316 50.8634 77.5286C51.3828 77.5257 51.8922 77.3855 52.34 77.1224L71.4324 65.89L47.8991 60.1743Z" fill="#FFA017"/>
<path d="M74.4928 62.6699V29.1889C74.4922 29.0167 74.4464 28.8477 74.36 28.6988C74.2735 28.55 74.1494 28.4264 74.0002 28.3406C73.8509 28.2548 73.6817 28.2097 73.5095 28.2098C73.3373 28.21 73.1682 28.2554 73.0191 28.3415L50.8123 41.4038C49.9273 41.9244 49.1936 42.6672 48.684 43.5586C48.1743 44.4499 47.9064 45.4589 47.9066 46.4857V56.21L74.4928 62.6699Z" fill="#0066FF"/>
<path d="M119.081 35.8743V60.7143H116.561V40.8783L107.705 60.7143H105.869L97.0128 40.9503V60.7143H94.4928V35.8743H97.1568L106.769 57.4023L116.381 35.8743H119.081Z" fill="#141459"/>
<path d="M122.926 50.8503C122.926 48.8343 123.322 47.0703 124.114 45.5583C124.93 44.0223 126.046 42.8463 127.462 42.0303C128.902 41.1903 130.522 40.7703 132.322 40.7703C134.194 40.7703 135.802 41.2023 137.146 42.0663C138.514 42.9303 139.498 44.0343 140.098 45.3783V41.0583H142.618V60.7143H140.098V56.3583C139.474 57.7023 138.478 58.8183 137.11 59.7063C135.766 60.5703 134.158 61.0023 132.286 61.0023C130.51 61.0023 128.902 60.5823 127.462 59.7423C126.046 58.9023 124.93 57.7143 124.114 56.1783C123.322 54.6423 122.926 52.8663 122.926 50.8503ZM140.098 50.8863C140.098 49.3023 139.774 47.9103 139.126 46.7103C138.478 45.5103 137.59 44.5863 136.462 43.9383C135.358 43.2903 134.134 42.9663 132.79 42.9663C131.398 42.9663 130.15 43.2783 129.046 43.9023C127.942 44.5263 127.066 45.4383 126.418 46.6383C125.794 47.8143 125.482 49.2183 125.482 50.8503C125.482 52.4583 125.794 53.8743 126.418 55.0983C127.066 56.2983 127.942 57.2223 129.046 57.8703C130.15 58.4943 131.398 58.8063 132.79 58.8063C134.134 58.8063 135.358 58.4823 136.462 57.8343C137.59 57.1863 138.478 56.2623 139.126 55.0623C139.774 53.8623 140.098 52.4703 140.098 50.8863Z" fill="#141459"/>
<path d="M146.498 50.8503C146.498 48.8343 146.906 47.0703 147.722 45.5583C148.538 44.0223 149.654 42.8463 151.07 42.0303C152.51 41.1903 154.13 40.7703 155.93 40.7703C157.658 40.7703 159.218 41.1903 160.61 42.0303C162.002 42.8703 163.022 43.9623 163.67 45.3063V34.0743H166.19V60.7143H163.67V56.3223C163.07 57.6903 162.086 58.8183 160.718 59.7063C159.35 60.5703 157.742 61.0023 155.894 61.0023C154.094 61.0023 152.474 60.5823 151.034 59.7423C149.618 58.9023 148.502 57.7143 147.686 56.1783C146.894 54.6423 146.498 52.8663 146.498 50.8503ZM163.67 50.8863C163.67 49.3023 163.346 47.9103 162.698 46.7103C162.05 45.5103 161.162 44.5863 160.034 43.9383C158.93 43.2903 157.706 42.9663 156.362 42.9663C154.97 42.9663 153.722 43.2783 152.618 43.9023C151.514 44.5263 150.638 45.4383 149.99 46.6383C149.366 47.8143 149.054 49.2183 149.054 50.8503C149.054 52.4583 149.366 53.8743 149.99 55.0983C150.638 56.2983 151.514 57.2223 152.618 57.8703C153.722 58.4943 154.97 58.8063 156.362 58.8063C157.706 58.8063 158.93 58.4823 160.034 57.8343C161.162 57.1863 162.05 56.2623 162.698 55.0623C163.346 53.8623 163.67 52.4703 163.67 50.8863Z" fill="#141459"/>
<path d="M189.007 49.8783C189.007 50.7423 188.983 51.4023 188.935 51.8583H172.627C172.699 53.3463 173.059 54.6183 173.707 55.6743C174.355 56.7303 175.207 57.5343 176.263 58.0863C177.319 58.6143 178.471 58.8783 179.719 58.8783C181.351 58.8783 182.719 58.4823 183.823 57.6903C184.951 56.8983 185.695 55.8303 186.055 54.4863H188.719C188.239 56.4063 187.207 57.9783 185.623 59.2023C184.063 60.4023 182.095 61.0023 179.719 61.0023C177.871 61.0023 176.215 60.5943 174.751 59.7783C173.287 58.9383 172.135 57.7623 171.295 56.2503C170.479 54.7143 170.071 52.9263 170.071 50.8863C170.071 48.8463 170.479 47.0583 171.295 45.5223C172.111 43.9863 173.251 42.8103 174.715 41.9943C176.179 41.1783 177.847 40.7703 179.719 40.7703C181.591 40.7703 183.223 41.1783 184.615 41.9943C186.031 42.8103 187.111 43.9143 187.855 45.3063C188.623 46.6743 189.007 48.1983 189.007 49.8783ZM186.451 49.8063C186.475 48.3423 186.175 47.0943 185.551 46.0623C184.951 45.0303 184.123 44.2503 183.067 43.7223C182.011 43.1943 180.859 42.9303 179.611 42.9303C177.739 42.9303 176.143 43.5303 174.823 44.7303C173.503 45.9303 172.771 47.6223 172.627 49.8063H186.451Z" fill="#141459"/>
<path d="M227.977 41.0583L221.821 60.7143H219.301L213.865 44.2263L208.429 60.7143H205.873L199.717 41.0583H202.273L207.169 58.1583L212.677 41.0583H215.197L220.633 58.1943L225.493 41.0583H227.977Z" fill="#141459"/>
<path d="M231.952 37.3503C231.448 37.3503 231.016 37.1703 230.656 36.8103C230.296 36.4503 230.116 36.0063 230.116 35.4783C230.116 34.9503 230.296 34.5183 230.656 34.1823C231.016 33.8223 231.448 33.6423 231.952 33.6423C232.456 33.6423 232.888 33.8223 233.248 34.1823C233.608 34.5183 233.788 34.9503 233.788 35.4783C233.788 36.0063 233.608 36.4503 233.248 36.8103C232.888 37.1703 232.456 37.3503 231.952 37.3503ZM233.212 41.0583V60.7143H230.692V41.0583H233.212Z" fill="#141459"/>
<path d="M241.475 43.1823V55.3863C241.475 56.5863 241.703 57.4143 242.159 57.8703C242.615 58.3263 243.419 58.5543 244.571 58.5543H246.875V60.7143H244.175C242.399 60.7143 241.079 60.3063 240.215 59.4903C239.351 58.6503 238.919 57.2823 238.919 55.3863V43.1823H236.183V41.0583H238.919V36.1263H241.475V41.0583H246.875V43.1823H241.475Z" fill="#141459"/>
<path d="M259.671 40.6983C261.159 40.6983 262.491 41.0103 263.667 41.6343C264.867 42.2583 265.803 43.2183 266.475 44.5143C267.171 45.7863 267.519 47.3463 267.519 49.1943V60.7143H265.035V49.4823C265.035 47.3463 264.495 45.7143 263.415 44.5863C262.359 43.4583 260.907 42.8943 259.059 42.8943C257.163 42.8943 255.651 43.4943 254.523 44.6943C253.395 45.8943 252.831 47.6583 252.831 49.9863V60.7143H250.311V34.0743H252.831V44.4063C253.455 43.2303 254.367 42.3183 255.567 41.6703C256.791 41.0223 258.159 40.6983 259.671 40.6983Z" fill="#141459"/>
<path d="M297.33 43.1463C296.754 42.0903 295.962 41.2863 294.954 40.7343C293.946 40.1823 292.77 39.9063 291.426 39.9063C289.938 39.9063 288.618 40.2423 287.466 40.9143C286.314 41.5863 285.414 42.5463 284.766 43.7943C284.118 45.0423 283.794 46.4823 283.794 48.1143C283.794 49.7943 284.118 51.2583 284.766 52.5063C285.438 53.7543 286.362 54.7143 287.538 55.3863C288.714 56.0583 290.082 56.3943 291.642 56.3943C293.562 56.3943 295.134 55.8903 296.358 54.8823C297.582 53.8503 298.386 52.4223 298.77 50.5983H290.13V46.7463H303.738V51.1383C303.402 52.8903 302.682 54.5103 301.578 55.9983C300.474 57.4863 299.046 58.6863 297.294 59.5983C295.566 60.4863 293.622 60.9303 291.462 60.9303C289.038 60.9303 286.842 60.3903 284.874 59.3103C282.93 58.2063 281.394 56.6823 280.266 54.7383C279.162 52.7943 278.61 50.5863 278.61 48.1143C278.61 45.6423 279.162 43.4343 280.266 41.4903C281.394 39.5223 282.93 37.9983 284.874 36.9183C286.842 35.8143 289.026 35.2623 291.426 35.2623C294.258 35.2623 296.718 35.9583 298.806 37.3503C300.894 38.7183 302.334 40.6503 303.126 43.1463H297.33Z" fill="#141459"/>
<path d="M325.575 40.7703V60.7143H320.499V58.1943C319.851 59.0583 318.999 59.7423 317.943 60.2463C316.911 60.7263 315.783 60.9663 314.559 60.9663C312.999 60.9663 311.619 60.6423 310.419 59.9943C309.219 59.3223 308.271 58.3503 307.575 57.0783C306.903 55.7823 306.567 54.2463 306.567 52.4703V40.7703H311.607V51.7503C311.607 53.3343 312.003 54.5583 312.795 55.4223C313.587 56.2623 314.667 56.6823 316.035 56.6823C317.427 56.6823 318.519 56.2623 319.311 55.4223C320.103 54.5583 320.499 53.3343 320.499 51.7503V40.7703H325.575Z" fill="#141459"/>
<path d="M334.868 43.8663C335.516 42.8103 336.356 41.9823 337.388 41.3823C338.444 40.7823 339.644 40.4823 340.988 40.4823V45.7743H339.656C338.072 45.7743 336.872 46.1463 336.056 46.8903C335.264 47.6343 334.868 48.9303 334.868 50.7783V60.7143H329.828V40.7703H334.868V43.8663Z" fill="#141459"/>
<path d="M362.491 40.7703V60.7143H357.415V58.1943C356.767 59.0583 355.915 59.7423 354.859 60.2463C353.827 60.7263 352.699 60.9663 351.475 60.9663C349.915 60.9663 348.535 60.6423 347.335 59.9943C346.135 59.3223 345.187 58.3503 344.491 57.0783C343.819 55.7823 343.483 54.2463 343.483 52.4703V40.7703H348.523V51.7503C348.523 53.3343 348.919 54.5583 349.711 55.4223C350.503 56.2623 351.583 56.6823 352.951 56.6823C354.343 56.6823 355.435 56.2623 356.227 55.4223C357.019 54.5583 357.415 53.3343 357.415 51.7503V40.7703H362.491Z" fill="#141459"/>
<path d="M375.419 60.9663C373.667 60.9663 372.083 60.6663 370.667 60.0663C369.275 59.4663 368.171 58.6023 367.355 57.4743C366.539 56.3463 366.119 55.0143 366.095 53.4783H371.495C371.567 54.5103 371.927 55.3263 372.575 55.9263C373.247 56.5263 374.159 56.8263 375.311 56.8263C376.487 56.8263 377.411 56.5503 378.083 55.9983C378.755 55.4223 379.091 54.6783 379.091 53.7663C379.091 53.0223 378.863 52.4103 378.407 51.9303C377.951 51.4503 377.375 51.0783 376.679 50.8143C376.007 50.5263 375.071 50.2143 373.871 49.8783C372.239 49.3983 370.907 48.9303 369.875 48.4743C368.867 47.9943 367.991 47.2863 367.247 46.3503C366.527 45.3903 366.167 44.1183 366.167 42.5343C366.167 41.0463 366.539 39.7503 367.283 38.6463C368.027 37.5423 369.071 36.7023 370.415 36.1263C371.759 35.5263 373.295 35.2263 375.023 35.2263C377.615 35.2263 379.715 35.8623 381.323 37.1343C382.955 38.3823 383.855 40.1343 384.023 42.3903H378.479C378.431 41.5263 378.059 40.8183 377.363 40.2663C376.691 39.6903 375.791 39.4023 374.663 39.4023C373.679 39.4023 372.887 39.6543 372.287 40.1583C371.711 40.6623 371.423 41.3943 371.423 42.3543C371.423 43.0263 371.639 43.5903 372.071 44.0463C372.527 44.4783 373.079 44.8383 373.727 45.1263C374.399 45.3903 375.335 45.7023 376.535 46.0623C378.167 46.5423 379.499 47.0223 380.531 47.5023C381.563 47.9823 382.451 48.7023 383.195 49.6623C383.939 50.6223 384.311 51.8823 384.311 53.4423C384.311 54.7863 383.963 56.0343 383.267 57.1863C382.571 58.3383 381.551 59.2623 380.207 59.9583C378.863 60.6303 377.267 60.9663 375.419 60.9663Z" fill="#141459"/>
<path d="M390.517 38.3943C389.629 38.3943 388.885 38.1183 388.285 37.5663C387.709 36.9903 387.421 36.2823 387.421 35.4423C387.421 34.6023 387.709 33.9063 388.285 33.3543C388.885 32.7783 389.629 32.4903 390.517 32.4903C391.405 32.4903 392.137 32.7783 392.713 33.3543C393.313 33.9063 393.613 34.6023 393.613 35.4423C393.613 36.2823 393.313 36.9903 392.713 37.5663C392.137 38.1183 391.405 38.3943 390.517 38.3943ZM393.001 40.7703V60.7143H387.961V40.7703H393.001Z" fill="#141459"/>
<path d="M403.128 44.9103V54.5583C403.128 55.2303 403.284 55.7223 403.596 56.0343C403.932 56.3223 404.484 56.4663 405.252 56.4663H407.592V60.7143H404.424C400.176 60.7143 398.052 58.6503 398.052 54.5223V44.9103H395.676V40.7703H398.052V35.8383H403.128V40.7703H407.592V44.9103H403.128Z" fill="#141459"/>
<path d="M429.037 50.3103C429.037 51.0303 428.989 51.6783 428.893 52.2543H414.313C414.433 53.6943 414.937 54.8223 415.825 55.6383C416.713 56.4543 417.805 56.8623 419.101 56.8623C420.973 56.8623 422.305 56.0583 423.097 54.4503H428.533C427.957 56.3703 426.853 57.9543 425.221 59.2023C423.589 60.4263 421.585 61.0383 419.209 61.0383C417.289 61.0383 415.561 60.6183 414.025 59.7783C412.513 58.9143 411.325 57.7023 410.461 56.1423C409.621 54.5823 409.201 52.7823 409.201 50.7423C409.201 48.6783 409.621 46.8663 410.461 45.3063C411.301 43.7463 412.477 42.5463 413.989 41.7063C415.501 40.8663 417.241 40.4463 419.209 40.4463C421.105 40.4463 422.797 40.8543 424.285 41.6703C425.797 42.4863 426.961 43.6503 427.777 45.1623C428.617 46.6503 429.037 48.3663 429.037 50.3103ZM423.817 48.8703C423.793 47.5743 423.325 46.5423 422.413 45.7743C421.501 44.9823 420.385 44.5863 419.065 44.5863C417.817 44.5863 416.761 44.9703 415.897 45.7383C415.057 46.4823 414.541 47.5263 414.349 48.8703H423.817Z" fill="#141459"/>
<path d="M439.628 61.0383C437.996 61.0383 436.532 60.7503 435.236 60.1743C433.94 59.5743 432.908 58.7703 432.14 57.7623C431.396 56.7543 430.988 55.6383 430.916 54.4143H435.992C436.088 55.1823 436.46 55.8183 437.108 56.3223C437.78 56.8263 438.608 57.0783 439.592 57.0783C440.552 57.0783 441.296 56.8863 441.824 56.5023C442.376 56.1183 442.652 55.6263 442.652 55.0263C442.652 54.3783 442.316 53.8983 441.644 53.5863C440.996 53.2503 439.952 52.8903 438.512 52.5063C437.024 52.1463 435.8 51.7743 434.84 51.3903C433.904 51.0063 433.088 50.4183 432.392 49.6263C431.72 48.8343 431.384 47.7663 431.384 46.4223C431.384 45.3183 431.696 44.3103 432.32 43.3983C432.968 42.4863 433.88 41.7663 435.056 41.2383C436.256 40.7103 437.66 40.4463 439.268 40.4463C441.644 40.4463 443.54 41.0463 444.956 42.2463C446.372 43.4223 447.152 45.0183 447.296 47.0343H442.472C442.4 46.2423 442.064 45.6183 441.464 45.1623C440.888 44.6823 440.108 44.4423 439.124 44.4423C438.212 44.4423 437.504 44.6103 437 44.9463C436.52 45.2823 436.28 45.7503 436.28 46.3503C436.28 47.0223 436.616 47.5383 437.288 47.8983C437.96 48.2343 439.004 48.5823 440.42 48.9423C441.86 49.3023 443.048 49.6743 443.984 50.0583C444.92 50.4423 445.724 51.0423 446.396 51.8583C447.092 52.6503 447.452 53.7063 447.476 55.0263C447.476 56.1783 447.152 57.2103 446.504 58.1223C445.88 59.0343 444.968 59.7543 443.768 60.2823C442.592 60.7863 441.212 61.0383 439.628 61.0383Z" fill="#141459"/>
<rect x="0.5" y="0.5" width="478.476" height="92.5287" rx="15.5" stroke="#CFD5DD"/>
</svg>
