<svg width="111" height="31" viewBox="0 0 111 31" fill="none" xmlns="http://www.w3.org/2000/svg">
<rect x="1.40002" y="1.18109" width="109" height="29.3189" rx="1.5" fill="white" stroke="#D9D9D9"/>
<rect x="24.4279" y="4.47095" width="62.7407" height="22.7392" rx="1" fill="#979494"/>
<path d="M20.1584 16.0526C20.2756 15.9355 20.2756 15.7455 20.1584 15.6284L18.2492 13.7192C18.1321 13.602 17.9421 13.602 17.825 13.7192C17.7078 13.8364 17.7078 14.0263 17.825 14.1435L19.522 15.8405L17.825 17.5376C17.7078 17.6547 17.7078 17.8447 17.825 17.9618C17.9421 18.079 18.1321 18.079 18.2492 17.9618L20.1584 16.0526ZM10.9833 16.1405L19.9463 16.1405L19.9463 15.5405L10.9833 15.5405L10.9833 16.1405Z" fill="#666060"/>
<path d="M91.4378 15.6284C91.3207 15.7455 91.3207 15.9355 91.4378 16.0526L93.347 17.9618C93.4642 18.079 93.6541 18.079 93.7713 17.9618C93.8884 17.8447 93.8884 17.6547 93.7713 17.5376L92.0742 15.8405L93.7713 14.1435C93.8884 14.0263 93.8884 13.8364 93.7713 13.7192C93.6541 13.602 93.4642 13.602 93.347 13.7192L91.4378 15.6284ZM100.613 15.5405L91.65 15.5405L91.65 16.1405L100.613 16.1405L100.613 15.5405Z" fill="#666060"/>
</svg>
