<svg width="110" height="31" viewBox="0 0 110 31" fill="none" xmlns="http://www.w3.org/2000/svg">
<rect x="0.5" y="1.18109" width="109" height="29.3189" rx="1.5" fill="white" stroke="#D9D9D9"/>
<rect x="3.36115" y="4.47095" width="103.074" height="22.7392" rx="1" fill="#979494"/>
<path d="M9.87117 15.6284C9.75401 15.7455 9.75401 15.9355 9.87117 16.0526L11.7804 17.9618C11.8975 18.079 12.0875 18.079 12.2046 17.9618C12.3218 17.8447 12.3218 17.6547 12.2046 17.5376L10.5076 15.8405L12.2046 14.1435C12.3218 14.0263 12.3218 13.8364 12.2046 13.7192C12.0875 13.602 11.8975 13.602 11.7804 13.7192L9.87117 15.6284ZM19.0463 15.5405L10.0833 15.5405V16.1405H19.0463V15.5405Z" fill="#666060"/>
<path d="M99.9252 16.0526C100.042 15.9355 100.042 15.7455 99.9252 15.6284L98.016 13.7192C97.8988 13.602 97.7089 13.602 97.5917 13.7192C97.4745 13.8364 97.4745 14.0263 97.5917 14.1435L99.2888 15.8405L97.5917 17.5376C97.4745 17.6547 97.4745 17.8447 97.5917 17.9618C97.7089 18.079 97.8988 18.079 98.016 17.9618L99.9252 16.0526ZM90.7501 16.1405L99.713 16.1405L99.713 15.5405L90.7501 15.5405L90.7501 16.1405Z" fill="#666060"/>
</svg>
